# This file uses meters as units for non-parametric coordinates.

v -157.719269 255.195236 -0.000018
v 157.719315 255.195236 0.000000
v -157.719315 -255.195236 0.000000
v 157.719315 -255.195236 0.000000
v 0.000000 -157.719315 255.195236
v 0.000000 157.719315 255.195236
v 0.000000 -157.719315 -255.195236
v 0.000000 157.719315 -255.195236
v 255.195236 0.000000 -157.719315
v 255.195236 0.000000 157.719315
v -255.195236 0.000000 -157.719315
v -255.195236 0.000000 157.719315
v -242.705078 150.000000 92.705101
v -150.000000 92.705101 242.705093
v -92.705086 242.705093 150.000000
v 92.705101 242.705093 150.000000
v 0.000018 300.000000 0.000002
v 92.705101 242.705093 -150.000000
v -92.705086 242.705093 -150.000000
v -150.000000 92.705101 -242.705093
v -242.705078 150.000000 -92.705101
v -300.000000 0.000000 0.000000
v 150.000000 92.705101 242.705093
v 242.705093 150.000000 92.705101
v -150.000000 -92.705101 242.705093
v 0.000000 0.000000 300.000000
v -242.705093 -150.000000 -92.705101
v -242.705093 -150.000000 92.705101
v 0.000000 0.000000 -300.000000
v -150.000000 -92.705101 -242.705093
v 242.705093 150.000000 -92.705101
v 150.000000 92.705101 -242.705093
v 242.705093 -150.000000 92.705101
v 150.000000 -92.705101 242.705093
v 92.705101 -242.705093 150.000000
v -92.705101 -242.705093 150.000000
v 0.000000 -300.000000 0.000000
v -92.705101 -242.705093 -150.000000
v 92.705101 -242.705093 -150.000000
v 150.000000 -92.705101 -242.705093
v 242.705093 -150.000000 -92.705101
v 300.000000 0.000000 0.000000
vt 0.237135 0.925325
vt 0.345492 0.904508
vt 0.095492 0.750000
vt 0.074675 0.500000
vt 0.250000 0.654508
vt 0.500000 0.762866
vt 0.500000 1.000000
vt 0.654508 0.904508
vt 0.762866 0.925325
vt 0.345492 0.904508
vt 0.654508 0.904508
vt 0.500000 0.762866
vt 0.095492 0.750000
vt 0.250000 0.654508
vt 0.074675 0.500000
vt 0.000000 0.500000
vt 0.904508 0.750000
vt 0.750000 0.654508
vt 0.925325 0.500000
vt 0.500000 0.500000
vt 0.250000 0.345492
vt 0.500000 0.237134
vt 0.095492 0.250000
vt 0.095492 0.250000
vt 0.237134 0.074675
vt 0.250000 0.345492
vt 0.500000 0.500000
vt 0.500000 0.237134
vt 0.750000 0.654508
vt 0.904508 0.750000
vt 0.925325 0.500000
vt 0.762866 0.074675
vt 0.654508 0.095492
vt 0.904508 0.250000
vt 0.750000 0.345492
vt 0.500000 0.000000
vt 0.345492 0.095492
vt 0.654508 0.095492
vt 0.345492 0.095492
vt 0.904508 0.250000
vt 0.750000 0.345492
vt 1.000000 0.500000
vn 0.525731 -0.850651 0.000000
vn 0.309017 -0.809017 -0.500000
vn 0.809017 -0.500000 -0.309017
vn 0.850651 0.000000 -0.525731
vn 0.500000 -0.309017 -0.809017
vn 0.000000 -0.525731 -0.850651
vn -0.000000 -1.000000 0.000000
vn -0.309017 -0.809017 -0.500000
vn -0.525731 -0.850651 0.000000
vn 0.309017 -0.809017 0.500000
vn -0.309017 -0.809017 0.500000
vn -0.000000 -0.525731 0.850651
vn 0.809017 -0.500000 0.309017
vn 0.500000 -0.309017 0.809017
vn 0.850651 0.000000 0.525731
vn 1.000000 -0.000000 0.000000
vn -0.809017 -0.500000 -0.309017
vn -0.500000 -0.309017 -0.809017
vn -0.850651 0.000000 -0.525731
vn 0.000000 0.000000 -1.000000
vn 0.500000 0.309017 -0.809017
vn 0.000000 0.525731 -0.850651
vn 0.809017 0.500000 -0.309017
vn 0.809017 0.500000 0.309017
vn 0.525731 0.850651 0.000000
vn 0.500000 0.309017 0.809017
vn 0.000000 0.000000 1.000000
vn 0.000000 0.525731 0.850651
vn -0.500000 -0.309017 0.809017
vn -0.809017 -0.500000 0.309017
vn -0.850651 0.000000 0.525731
vn -0.525731 0.850651 0.000000
vn -0.309017 0.809017 -0.500000
vn -0.809017 0.500000 -0.309017
vn -0.500000 0.309017 -0.809017
vn 0.000000 1.000000 0.000000
vn 0.309017 0.809017 -0.500000
vn -0.309017 0.809017 0.500000
vn 0.309017 0.809017 0.500000
vn -0.809017 0.500000 0.309017
vn -0.500000 0.309017 0.809017
vn -1.000000 -0.000000 0.000000
f 1/1/1 15/2/2 13/3/3
f 12/4/4 13/3/3 14/5/5
f 6/6/6 14/5/5 15/2/2
f 13/3/3 15/2/2 14/5/5
f 1/1/1 17/7/7 15/2/2
f 6/6/6 15/2/2 16/8/8
f 2/9/9 16/8/8 17/7/7
f 15/2/2 17/7/7 16/8/8
f 1/1/1 19/10/10 17/7/7
f 2/9/9 17/7/7 18/11/11
f 8/12/12 18/11/11 19/10/10
f 17/7/7 19/10/10 18/11/11
f 1/1/1 21/13/13 19/10/10
f 8/12/12 19/10/10 20/14/14
f 11/15/15 20/14/14 21/13/13
f 19/10/10 21/13/13 20/14/14
f 1/1/1 13/3/3 21/13/13
f 11/15/15 21/13/13 22/16/16
f 12/4/4 22/16/16 13/3/3
f 21/13/13 13/3/3 22/16/16
f 2/9/9 24/17/17 16/8/8
f 6/6/6 16/8/8 23/18/18
f 10/19/19 23/18/18 24/17/17
f 16/8/8 24/17/17 23/18/18
f 6/6/6 26/20/20 14/5/5
f 12/4/4 14/5/5 25/21/21
f 5/22/22 25/21/21 26/20/20
f 14/5/5 26/20/20 25/21/21
f 12/4/4 28/23/23 22/16/16
f 11/15/15 22/16/16 27/24/24
f 3/25/25 27/24/24 28/23/23
f 22/16/16 28/23/23 27/24/24
f 11/15/15 30/26/26 20/14/14
f 8/12/12 20/14/14 29/27/27
f 7/28/28 29/27/27 30/26/26
f 20/14/14 30/26/26 29/27/27
f 8/12/12 32/29/29 18/11/11
f 2/9/9 18/11/11 31/30/30
f 9/31/31 31/30/30 32/29/29
f 18/11/11 32/29/29 31/30/30
f 4/32/32 35/33/33 33/34/34
f 10/19/19 33/34/34 34/35/35
f 5/22/22 34/35/35 35/33/33
f 33/34/34 35/33/33 34/35/35
f 4/32/32 37/36/36 35/33/33
f 5/22/22 35/33/33 36/37/37
f 3/25/25 36/37/37 37/36/36
f 35/33/33 37/36/36 36/37/37
f 4/32/32 39/38/38 37/36/36
f 3/25/25 37/36/36 38/39/39
f 7/28/28 38/39/39 39/38/38
f 37/36/36 39/38/38 38/39/39
f 4/32/32 41/40/40 39/38/38
f 7/28/28 39/38/38 40/41/41
f 9/31/31 40/41/41 41/40/40
f 39/38/38 41/40/40 40/41/41
f 4/32/32 33/34/34 41/40/40
f 9/31/31 41/40/40 42/42/42
f 10/19/19 42/42/42 33/34/34
f 41/40/40 33/34/34 42/42/42
f 5/22/22 26/20/20 34/35/35
f 10/19/19 34/35/35 23/18/18
f 6/6/6 23/18/18 26/20/20
f 34/35/35 26/20/20 23/18/18
f 3/25/25 28/23/23 36/37/37
f 5/22/22 36/37/37 25/21/21
f 12/4/4 25/21/21 28/23/23
f 36/37/37 28/23/23 25/21/21
f 7/28/28 30/26/26 38/39/39
f 3/25/25 38/39/39 27/24/24
f 11/15/15 27/24/24 30/26/26
f 38/39/39 30/26/26 27/24/24
f 9/31/31 32/29/29 40/41/41
f 7/28/28 40/41/41 29/27/27
f 8/12/12 29/27/27 32/29/29
f 40/41/41 32/29/29 29/27/27
f 10/19/19 24/17/17 42/42/42
f 9/31/31 42/42/42 31/30/30
f 2/9/9 31/30/30 24/17/17
f 42/42/42 24/17/17 31/30/30
